#Comment line ignore any data following # character 
#Hierarchical Translation and Rotation (.htr) file 
[Header]	
#Header keywords are followed by a single value 
FileType HTR		#Single word string
DataType HTRS		#Translation followed by rotation and scale data
FileVersion 1		#integer
NumSegments 84		#integer
NumFrames 2		#integer
DataFrameRate 30		#integer, data frame rate in this file
EulerRotationOrder ZYX
CalibrationUnits mm
RotationUnits Degrees
GlobalAxisofGravity Y
BoneLengthAxis Y
ScaleFactor 1.00
[SegmentNames&Hierarchy]
#CHILD	PARENT
MASTER GLOBAL
root MASTER
chest root
L_mid_tent01 root
R_mid_tent01 root
spine01 root
Bip01_Neck chest
L_humerus chest
R_humerus chest
weapon_bone chest
Bip01_Head Bip01_Neck
eye_left_bone Bip01_Head
eye_right_bone Bip01_Head
L_forearm L_humerus
L_front_hand L_forearm
L_weapon_bone L_forearm
L_front_hand01_01 L_front_hand
L_front_hand02_01 L_front_hand
L_front_hand03_01 L_front_hand
L_front_hand01_02 L_front_hand01_01
L_front_hand02_02 L_front_hand02_01
L_front_hand03_02 L_front_hand03_01
R_forearm R_humerus
R_front_hand R_forearm
R_weapon_bone R_forearm
R_front_hand01_01 R_front_hand
R_front_hand02_01 R_front_hand
R_front_hand03_01 R_front_hand
R_front_hand01_02 R_front_hand01_01
R_front_hand02_02 R_front_hand02_01
R_front_hand03_02 R_front_hand03_01
null_rope01_connect L_mid_tent01
Rope1_Seg01 null_rope01_connect
Rope1_Seg02 Rope1_Seg01
Rope1_Seg03 Rope1_Seg02
Rope1_Seg04 Rope1_Seg03
Rope1_Seg05 Rope1_Seg04
Rope1_Seg06 Rope1_Seg05
Rope1_Seg07 Rope1_Seg06
Rope1_Seg09 Rope1_Seg07
L_mid_hand01 Rope1_Seg09
L_mid_hand02 Rope1_Seg09
L_mid_hand03 Rope1_Seg09
null_rope02_connect R_mid_tent01
Rope2_Seg01 null_rope02_connect
Rope2_Seg02 Rope2_Seg01
Rope2_Seg03 Rope2_Seg02
Rope2_Seg04 Rope2_Seg03
Rope2_Seg05 Rope2_Seg04
Rope2_Seg06 Rope2_Seg05
Rope2_Seg07 Rope2_Seg06
Rope2_Seg09 Rope2_Seg07
R_mid_hand01 Rope2_Seg09
R_mid_hand02 Rope2_Seg09
R_mid_hand03 Rope2_Seg09
spine02 spine01
spine03 spine02
pelvis spine03
null_rope03_connect pelvis
null_rope04_connect pelvis
Rope3_Seg01 null_rope03_connect
Rope3_Seg02 Rope3_Seg01
Rope3_Seg03 Rope3_Seg02
Rope3_Seg04 Rope3_Seg03
Rope3_Seg05 Rope3_Seg04
Rope3_Seg06 Rope3_Seg05
Rope3_Seg07 Rope3_Seg06
Rope3_Seg08 Rope3_Seg07
Rope3_Seg09 Rope3_Seg08
R_rear_hand01 Rope3_Seg09
R_rear_hand02 Rope3_Seg09
R_rear_hand03 Rope3_Seg09
Rope4_Seg01 null_rope04_connect
Rope4_Seg02 Rope4_Seg01
Rope4_Seg03 Rope4_Seg02
Rope4_Seg04 Rope4_Seg03
Rope4_Seg05 Rope4_Seg04
Rope4_Seg06 Rope4_Seg05
Rope4_Seg07 Rope4_Seg06
Rope4_Seg08 Rope4_Seg07
Rope4_Seg09 Rope4_Seg08
L_rear_hand01 Rope4_Seg09
L_rear_hand02 Rope4_Seg09
L_rear_hand03 Rope4_Seg09
[BasePosition]
#SegmentName Tx, Ty, Tz, Rx, Ry, Rz, BoneLength
MASTER 0.000000 0.000000 0.000000 -90.000000 0.000000 0.000000 10.000000 
root 0.000000 0.000000 0.000000 0.000000 0.000000 0.000000 10.000000 
chest 0.000000 0.000000 0.000000 0.000000 0.000000 0.000000 10.000000 
L_mid_tent01 0.000000 0.000000 0.000000 0.000000 0.000000 0.000000 10.000000 
R_mid_tent01 0.000000 0.000000 0.000000 0.000000 0.000000 0.000000 10.000000 
spine01 0.000000 0.000000 0.000000 0.000000 0.000000 0.000000 10.000000 
Bip01_Neck 0.000000 0.000000 0.000000 0.000000 0.000000 0.000000 10.000000 
L_humerus 0.000000 0.000000 0.000000 0.000000 0.000000 0.000000 10.000000 
R_humerus 0.000000 0.000000 0.000000 0.000000 0.000000 0.000000 10.000000 
weapon_bone 0.000000 0.000000 0.000000 0.000000 0.000000 0.000000 10.000000 
Bip01_Head 0.000000 0.000000 0.000000 0.000000 0.000000 0.000000 10.000000 
eye_left_bone 0.000000 0.000000 0.000000 0.000000 0.000000 0.000000 10.000000 
eye_right_bone 0.000000 0.000000 0.000000 0.000000 0.000000 0.000000 10.000000 
L_forearm 0.000000 0.000000 0.000000 0.000000 0.000000 0.000000 10.000000 
L_front_hand 0.000000 0.000000 0.000000 0.000000 0.000000 0.000000 10.000000 
L_weapon_bone 0.000000 0.000000 0.000000 0.000000 0.000000 0.000000 10.000000 
L_front_hand01_01 0.000000 0.000000 0.000000 0.000000 0.000000 0.000000 10.000000 
L_front_hand02_01 0.000000 0.000000 0.000000 0.000000 0.000000 0.000000 10.000000 
L_front_hand03_01 0.000000 0.000000 0.000000 0.000000 0.000000 0.000000 10.000000 
L_front_hand01_02 0.000000 0.000000 0.000000 0.000000 0.000000 0.000000 10.000000 
L_front_hand02_02 0.000000 0.000000 0.000000 0.000000 0.000000 0.000000 10.000000 
L_front_hand03_02 0.000000 0.000000 0.000000 0.000000 0.000000 0.000000 10.000000 
R_forearm 0.000000 0.000000 0.000000 0.000000 0.000000 0.000000 10.000000 
R_front_hand 0.000000 0.000000 0.000000 0.000000 0.000000 0.000000 10.000000 
R_weapon_bone 0.000000 0.000000 0.000000 0.000000 0.000000 0.000000 10.000000 
R_front_hand01_01 0.000000 0.000000 0.000000 0.000000 0.000000 0.000000 10.000000 
R_front_hand02_01 0.000000 0.000000 0.000000 0.000000 0.000000 0.000000 10.000000 
R_front_hand03_01 0.000000 0.000000 0.000000 0.000000 0.000000 0.000000 10.000000 
R_front_hand01_02 0.000000 0.000000 0.000000 0.000000 0.000000 0.000000 10.000000 
R_front_hand02_02 0.000000 0.000000 0.000000 0.000000 0.000000 0.000000 10.000000 
R_front_hand03_02 0.000000 0.000000 0.000000 0.000000 0.000000 0.000000 10.000000 
null_rope01_connect 0.000000 0.000000 0.000000 0.000000 0.000000 0.000000 10.000000 
Rope1_Seg01 0.000000 0.000000 0.000000 0.000000 0.000000 0.000000 10.000000 
Rope1_Seg02 0.000000 0.000000 0.000000 0.000000 0.000000 0.000000 10.000000 
Rope1_Seg03 0.000000 0.000000 0.000000 0.000000 0.000000 0.000000 10.000000 
Rope1_Seg04 0.000000 0.000000 0.000000 0.000000 0.000000 0.000000 10.000000 
Rope1_Seg05 0.000000 0.000000 0.000000 0.000000 0.000000 0.000000 10.000000 
Rope1_Seg06 0.000000 0.000000 0.000000 0.000000 0.000000 0.000000 10.000000 
Rope1_Seg07 0.000000 0.000000 0.000000 0.000000 0.000000 0.000000 10.000000 
Rope1_Seg09 0.000000 0.000000 0.000000 0.000000 0.000000 0.000000 10.000000 
L_mid_hand01 0.000000 0.000000 0.000000 0.000000 0.000000 0.000000 10.000000 
L_mid_hand02 0.000000 0.000000 0.000000 0.000000 0.000000 0.000000 10.000000 
L_mid_hand03 0.000000 0.000000 0.000000 0.000000 0.000000 0.000000 10.000000 
null_rope02_connect 0.000000 0.000000 0.000000 0.000000 0.000000 0.000000 10.000000 
Rope2_Seg01 0.000000 0.000000 0.000000 0.000000 0.000000 0.000000 10.000000 
Rope2_Seg02 0.000000 0.000000 0.000000 0.000000 0.000000 0.000000 10.000000 
Rope2_Seg03 0.000000 0.000000 0.000000 0.000000 0.000000 0.000000 10.000000 
Rope2_Seg04 0.000000 0.000000 0.000000 0.000000 0.000000 0.000000 10.000000 
Rope2_Seg05 0.000000 0.000000 0.000000 0.000000 0.000000 0.000000 10.000000 
Rope2_Seg06 0.000000 0.000000 0.000000 0.000000 0.000000 0.000000 10.000000 
Rope2_Seg07 0.000000 0.000000 0.000000 0.000000 0.000000 0.000000 10.000000 
Rope2_Seg09 0.000000 0.000000 0.000000 0.000000 0.000000 0.000000 10.000000 
R_mid_hand01 0.000000 0.000000 0.000000 0.000000 0.000000 0.000000 10.000000 
R_mid_hand02 0.000000 0.000000 0.000000 0.000000 0.000000 0.000000 10.000000 
R_mid_hand03 0.000000 0.000000 0.000000 0.000000 0.000000 0.000000 10.000000 
spine02 0.000000 0.000000 0.000000 0.000000 0.000000 0.000000 10.000000 
spine03 0.000000 0.000000 0.000000 0.000000 0.000000 0.000000 10.000000 
pelvis 0.000000 0.000000 0.000000 0.000000 0.000000 0.000000 10.000000 
null_rope03_connect 0.000000 0.000000 0.000000 0.000000 0.000000 0.000000 10.000000 
null_rope04_connect 0.000000 0.000000 0.000000 0.000000 0.000000 0.000000 10.000000 
Rope3_Seg01 0.000000 0.000000 0.000000 0.000000 0.000000 0.000000 10.000000 
Rope3_Seg02 0.000000 0.000000 0.000000 0.000000 0.000000 0.000000 10.000000 
Rope3_Seg03 0.000000 0.000000 0.000000 0.000000 0.000000 0.000000 10.000000 
Rope3_Seg04 0.000000 0.000000 0.000000 0.000000 0.000000 0.000000 10.000000 
Rope3_Seg05 0.000000 0.000000 0.000000 0.000000 0.000000 0.000000 10.000000 
Rope3_Seg06 0.000000 0.000000 0.000000 0.000000 0.000000 0.000000 10.000000 
Rope3_Seg07 0.000000 0.000000 0.000000 0.000000 0.000000 0.000000 10.000000 
Rope3_Seg08 0.000000 0.000000 0.000000 0.000000 0.000000 0.000000 10.000000 
Rope3_Seg09 0.000000 0.000000 0.000000 0.000000 0.000000 0.000000 10.000000 
R_rear_hand01 0.000000 0.000000 0.000000 0.000000 0.000000 0.000000 10.000000 
R_rear_hand02 0.000000 0.000000 0.000000 0.000000 0.000000 0.000000 10.000000 
R_rear_hand03 0.000000 0.000000 0.000000 0.000000 0.000000 0.000000 10.000000 
Rope4_Seg01 0.000000 0.000000 0.000000 0.000000 0.000000 0.000000 10.000000 
Rope4_Seg02 0.000000 0.000000 0.000000 0.000000 0.000000 0.000000 10.000000 
Rope4_Seg03 0.000000 0.000000 0.000000 0.000000 0.000000 0.000000 10.000000 
Rope4_Seg04 0.000000 0.000000 0.000000 0.000000 0.000000 0.000000 10.000000 
Rope4_Seg05 0.000000 0.000000 0.000000 0.000000 0.000000 0.000000 10.000000 
Rope4_Seg06 0.000000 0.000000 0.000000 0.000000 0.000000 0.000000 10.000000 
Rope4_Seg07 0.000000 0.000000 0.000000 0.000000 0.000000 0.000000 10.000000 
Rope4_Seg08 0.000000 0.000000 0.000000 0.000000 0.000000 0.000000 10.000000 
Rope4_Seg09 0.000000 0.000000 0.000000 0.000000 0.000000 0.000000 10.000000 
L_rear_hand01 0.000000 0.000000 0.000000 0.000000 0.000000 0.000000 10.000000 
L_rear_hand02 0.000000 0.000000 0.000000 0.000000 0.000000 0.000000 10.000000 
L_rear_hand03 0.000000 0.000000 0.000000 0.000000 0.000000 0.000000 10.000000 
#Beginning of Data. Separated by tabs
#Fr	Tx	Ty	Tz	Rx	Ry	Rz	SF
[MASTER]
15 0.000000 0.000000 0.000000 0.001660 0.001660 0.001660 0.000000
16 0.000000 0.000000 0.000000 0.001660 0.001660 0.001660 0.000000
[root]
15 -35.158386 -52.854153 2278.662598 -63.770866 -8.969863 -101.106239 2279.546875
16 -32.598629 -54.221840 1809.521118 -61.770287 -7.612133 -101.833412 1810.626709
[chest]
15 -84.512650 -34.090519 0.000000 1.413604 -0.251582 149.464188 91.129311
16 -84.512650 -34.090519 0.000000 1.562835 -0.142044 152.754303 91.129311
[L_mid_tent01]
15 27.299189 22.178869 -249.918533 1.792589 21.006788 79.241524 252.381500
16 27.299181 22.178886 -249.918549 2.840374 16.952484 80.395065 252.381516
[R_mid_tent01]
15 23.228794 24.509907 226.238495 163.025284 -24.471937 81.902222 228.744751
16 23.228794 24.509907 226.238495 157.927307 -40.790447 90.488258 228.744751
[spine01]
15 -0.361383 -0.195265 0.000000 0.002062 0.001122 32.879829 0.410763
16 -0.361383 -0.195265 0.000000 0.002062 0.001122 32.879829 0.410763
[Bip01_Neck]
15 165.484543 71.581718 0.000119 176.643677 -1.657967 43.431911 180.302734
16 165.484543 71.581718 0.000119 176.643677 -1.657967 43.431911 180.302734
[L_humerus]
15 -13.983130 -135.272980 -120.471481 156.210098 36.625565 -69.097755 181.680161
16 -13.983130 -135.272980 -120.471481 158.909912 29.863485 -66.963043 181.680161
[R_humerus]
15 -13.983309 -135.273102 125.287651 -175.651566 -7.715608 -89.599800 184.909012
16 -13.983309 -135.273102 125.287651 -176.168060 -8.529231 -88.181831 184.909012
[weapon_bone]
15 235.964890 -300.705902 0.000000 0.000000 -89.951546 -128.212341 382.234833
16 235.964890 -300.705902 0.000000 0.000000 -89.951546 -128.212341 382.234833
[Bip01_Head]
15 213.662079 185.109558 19.599838 31.542658 1.828347 -43.898300 283.374634
16 213.674011 185.076736 20.027304 31.273588 2.797648 -43.902237 283.392090
[eye_left_bone]
15 -24.626970 125.451866 -64.772606 0.000000 -90.000000 -99.840431 143.318359
16 -24.626970 125.451866 -64.772606 0.000000 -90.000000 -99.840431 143.318359
[eye_right_bone]
15 -24.626970 125.451866 64.327362 0.000000 -89.980217 80.156387 143.117676
16 -24.626970 125.451866 64.327362 0.000000 -89.965736 80.156380 143.117676
[L_forearm]
15 322.776093 0.000000 -0.000119 0.000119 -0.002344 -95.834129 322.776093
16 322.776093 0.000000 -0.000119 0.000115 -0.002344 -95.640724 322.776093
[L_front_hand]
15 241.149185 -0.042021 -3.300071 -178.633316 -1.807862 -28.544060 241.171753
16 241.149185 -0.042021 -3.300071 -178.641266 -1.817146 -28.268530 241.171753
[L_weapon_bone]
15 156.183838 0.000000 0.000000 0.000014 0.000007 0.000001 156.183838
16 156.183838 0.000000 0.000000 0.000014 0.000007 0.000001 156.183838
[L_front_hand01_01]
15 86.095154 20.947098 -0.655860 -0.366594 -0.477154 75.385574 88.609184
16 86.095154 20.947098 -0.655860 -0.366594 -0.477154 75.385582 88.609184
[L_front_hand02_01]
15 86.935165 -11.437475 24.513514 154.399811 -59.883846 -61.369606 91.046425
16 86.935165 -11.437475 24.513514 154.399796 -59.883835 -61.369587 91.046425
[L_front_hand03_01]
15 86.637497 -14.123976 -20.424902 -153.913849 58.118122 -62.702866 90.126129
16 86.637497 -14.123976 -20.424902 -153.913879 58.118130 -62.702892 90.126129
[L_front_hand01_02]
15 71.020905 -0.000179 0.000030 0.000332 -0.002324 -106.274635 71.020905
16 71.020905 -0.000179 0.000030 0.000333 -0.002323 -106.308632 71.020905
[L_front_hand02_02]
15 71.020927 -0.000119 0.000060 0.000332 -0.002324 -106.274635 71.020927
16 71.020927 -0.000119 0.000060 0.000333 -0.002323 -106.308632 71.020927
[L_front_hand03_02]
15 71.020905 -0.000060 0.000060 0.000332 -0.002324 -106.274635 71.020905
16 71.020905 -0.000060 0.000060 0.000333 -0.002323 -106.308632 71.020905
[R_forearm]
15 322.776428 -0.000060 0.000030 0.209514 0.012414 -94.244614 322.776428
16 322.776428 -0.000060 0.000030 0.209531 0.012117 -94.082520 322.776428
[R_front_hand]
15 238.847015 -0.006795 2.210259 -2.387736 -10.700501 -27.637890 238.857239
16 238.847015 -0.006795 2.210259 -2.450900 -10.686296 -27.309893 238.857239
[R_weapon_bone]
15 155.664093 0.002503 -0.000030 0.003487 0.001180 -90.988930 155.664078
16 155.664093 0.002503 -0.000030 0.003487 0.001180 -90.988930 155.664078
[R_front_hand01_01]
15 87.624611 14.231146 22.918642 -154.633514 -59.950634 61.746063 91.683487
16 87.624611 14.231146 22.918642 -154.633499 -59.950607 61.746044 91.683487
[R_front_hand02_01]
15 89.356956 14.367283 -19.491137 154.602676 58.302864 63.744400 92.579636
16 89.356956 14.367283 -19.491137 154.602661 58.302849 63.744389 92.579636
[R_front_hand03_01]
15 87.286232 -22.307278 -0.143439 0.162155 -0.423168 -75.767921 90.091743
16 87.286232 -22.307278 -0.143439 0.162155 -0.423168 -75.767921 90.091743
[R_front_hand01_02]
15 71.020905 0.000060 0.000119 0.002323 -0.000334 106.381721 71.020905
16 71.020905 0.000060 0.000119 0.002323 -0.000334 106.381714 71.020905
[R_front_hand02_02]
15 71.020844 -0.000030 -0.000119 0.002323 -0.000334 106.381721 71.020836
16 71.020844 -0.000030 -0.000119 0.002323 -0.000334 106.381714 71.020836
[R_front_hand03_02]
15 71.020905 0.000000 0.000030 0.002323 -0.000334 106.381721 71.020905
16 71.020905 0.000000 0.000030 0.002323 -0.000334 106.381714 71.020905
[null_rope01_connect]
15 328.732483 0.000000 -0.000238 -66.755280 -72.922813 86.172913 328.732483
16 328.732483 0.000000 -0.000238 -50.910088 -69.840897 68.474518 328.732483
[Rope1_Seg01]
15 -0.000038 -0.000114 0.000105 115.225159 65.201950 135.809799 0.000160
16 -0.000038 -0.000114 0.000105 110.129898 64.591576 130.029144 0.000160
[Rope1_Seg02]
15 139.999863 -0.000179 0.000000 1.371211 -15.148459 2.648707 139.999863
16 139.999863 -0.000179 0.000000 1.120382 -16.239891 2.175115 139.999863
[Rope1_Seg03]
15 139.999924 0.000060 -0.000060 -0.731993 -15.002516 3.221236 139.999924
16 139.999924 0.000060 -0.000060 -1.284289 -16.296543 2.524060 139.999924
[Rope1_Seg04]
15 139.999924 -0.000060 -0.000119 -2.064162 -12.305338 2.592543 139.999924
16 139.999924 -0.000060 -0.000119 -2.807352 -13.203961 1.810786 139.999924
[Rope1_Seg05]
15 139.999832 0.000119 -0.000060 -3.428829 -11.560912 1.373364 139.999832
16 139.999832 0.000119 -0.000060 -3.342885 -10.126783 1.316229 139.999832
[Rope1_Seg06]
15 139.999954 0.000119 -0.000060 -4.168365 -9.637511 0.353222 139.999954
16 139.999954 0.000119 -0.000060 -3.333897 -7.574589 0.663741 139.999954
[Rope1_Seg07]
15 139.999985 0.000060 0.000000 -3.345947 -6.164543 -0.110454 139.999985
16 139.999985 0.000060 0.000000 -2.809249 -5.172896 0.079069 139.999985
[Rope1_Seg09]
15 121.602913 0.000119 -0.000089 -89.793175 -1.359789 0.847147 121.602913
16 121.602913 0.000119 -0.000089 -89.793175 -1.359789 0.847147 121.602913
[L_mid_hand01]
15 103.859421 1.038730 8.195221 130.544373 -67.584534 -38.866947 104.187431
16 103.859421 1.038730 8.195221 130.544373 -67.584534 -38.866943 104.187431
[L_mid_hand02]
15 105.572853 -4.139662 -10.864139 -168.923172 43.409321 -73.498909 106.211075
16 105.572853 -4.139662 -10.864139 -168.923172 43.409309 -73.498886 106.211075
[L_mid_hand03]
15 104.641464 17.579376 -3.913581 -6.012628 17.808178 74.893669 106.179977
16 104.641464 17.579376 -3.913581 -6.012627 17.808174 74.893669 106.179977
[null_rope02_connect]
15 328.732849 0.000179 -0.000119 -153.287460 44.473392 -3.460569 328.732849
16 328.732849 0.000179 -0.000119 -153.507736 24.973198 -2.790283 328.732849
[Rope2_Seg01]
15 0.000016 0.000106 0.000000 -49.271648 11.317224 -5.813259 0.000107
16 0.000022 0.000106 0.000000 -79.197784 25.803602 -19.522877 0.000109
[Rope2_Seg02]
15 139.999741 -0.000060 -0.000119 -8.442782 -2.769685 9.218884 139.999756
16 139.999741 -0.000060 -0.000119 8.685087 -14.818475 0.175549 139.999756
[Rope2_Seg03]
15 140.000107 0.000030 0.000000 -2.688547 -4.501413 5.034980 140.000107
16 140.000107 0.000030 0.000000 10.216352 -13.572109 -4.522746 140.000107
[Rope2_Seg04]
15 139.999802 0.000000 -0.000060 -1.789707 -3.721599 4.079142 139.999802
16 139.999802 0.000000 -0.000060 0.217352 -7.221060 2.708778 139.999802
[Rope2_Seg05]
15 139.999985 -0.000060 0.000119 -10.863406 -0.743869 21.525572 139.999985
16 139.999985 -0.000060 0.000119 -13.130509 3.636587 26.445816 139.999985
[Rope2_Seg06]
15 139.999893 -0.000030 -0.000119 -6.946003 -4.438246 24.591291 139.999893
16 139.999893 -0.000030 -0.000119 -7.508144 -1.855196 27.298790 139.999893
[Rope2_Seg07]
15 139.999893 0.000060 -0.000060 -1.163536 -3.897232 11.691005 139.999893
16 139.999893 0.000060 -0.000060 -1.227855 -3.040632 11.621756 139.999893
[Rope2_Seg09]
15 121.338966 0.000089 -0.000060 33.793236 -1.359788 -0.847141 121.338966
16 121.338966 0.000089 -0.000060 33.793236 -1.359788 -0.847141 121.338966
[R_mid_hand01]
15 104.680779 11.144459 -10.335981 -16.212063 45.237240 70.462845 105.778534
16 104.680779 11.144459 -10.335981 -16.212063 45.237247 70.462852 105.778534
[R_mid_hand02]
15 104.070427 2.443552 8.231699 49.067387 -67.749794 39.286469 104.424065
16 104.070427 2.443552 8.231699 49.067368 -67.749771 39.286453 104.424065
[R_mid_hand03]
15 106.028137 -11.221827 -5.996406 -177.101105 15.551026 -76.585571 106.788818
16 106.028137 -11.221827 -5.996406 -177.101105 15.551026 -76.585571 106.788818
[spine02]
15 129.756927 0.001550 0.000119 -1.148927 -3.955199 8.586077 129.756927
16 129.756927 0.001550 0.000119 -1.136539 -3.942594 8.401876 129.756927
[spine03]
15 78.613884 0.082818 -4.898912 0.958782 4.276318 3.091543 78.766426
16 78.613892 0.082739 -4.898918 0.966772 4.245625 3.195526 78.766426
[pelvis]
15 169.435242 0.051022 0.000000 0.028089 -0.144461 -13.003760 169.435257
16 169.435242 0.051022 0.000000 0.028907 -0.154344 -12.779789 169.435257
[null_rope03_connect]
15 -1.257226 -2.466202 137.391083 -13.752539 -63.776237 83.801170 137.418976
16 -1.257226 -2.466202 137.391083 -14.424109 -61.510582 83.357086 137.418976
[null_rope04_connect]
15 -1.259640 -2.480268 -137.844437 -13.752539 -63.776237 83.801170 137.872513
16 -1.259640 -2.480268 -137.844437 -14.424109 -61.510582 83.357086 137.872513
[Rope3_Seg01]
15 -0.000014 -0.000001 0.000158 -136.328476 -47.489719 -76.850159 0.000158
16 -0.000015 0.000001 0.000147 -137.101379 -47.367996 -75.727280 0.000148
[Rope3_Seg02]
15 139.999924 -0.000119 0.000060 0.496366 -3.699757 -3.513369 139.999924
16 139.999924 -0.000119 0.000060 0.024218 -2.224644 -4.219234 139.999924
[Rope3_Seg03]
15 139.999924 -0.000119 0.000119 2.307476 -8.455399 -4.202389 139.999924
16 139.999924 -0.000119 0.000119 0.704494 -5.162097 -6.345577 139.999924
[Rope3_Seg04]
15 139.999924 0.000119 0.000000 8.582793 -17.143951 -6.210914 139.999924
16 139.999924 0.000119 0.000000 5.025085 -13.337440 -12.289318 139.999924
[Rope3_Seg05]
15 139.999924 -0.000238 0.000060 -70.081345 20.753922 -56.599895 139.999924
16 139.999924 -0.000238 0.000060 -85.917793 15.289240 -63.464382 139.999924
[Rope3_Seg06]
15 139.999893 -0.000119 -0.000060 -13.975484 22.227009 -2.548622 139.999893
16 139.999893 -0.000119 -0.000060 -10.789498 19.045223 1.364971 139.999893
[Rope3_Seg07]
15 139.999771 0.000060 -0.000119 -2.463066 7.354035 0.517515 139.999771
16 139.999771 0.000060 -0.000119 -1.922121 6.195669 1.339169 139.999771
[Rope3_Seg08]
15 139.999985 -0.000060 0.000000 -0.600578 3.362347 0.384809 139.999985
16 139.999985 -0.000060 0.000000 -0.430165 2.893058 0.727952 139.999985
[Rope3_Seg09]
15 90.185997 -0.000179 -0.000060 89.793228 -1.359877 -0.847183 90.185997
16 90.185997 -0.000179 -0.000060 89.793228 -1.359877 -0.847183 90.185997
[R_rear_hand01]
15 103.366196 -6.073594 -10.757982 -177.714203 24.565960 -73.910950 104.101845
16 103.366196 -6.073594 -10.757982 -177.714203 24.565960 -73.910950 104.101845
[R_rear_hand02]
15 100.509819 12.039542 -7.992327 -12.874834 36.868492 72.167213 101.543350
16 100.509819 12.039542 -7.992327 -12.874829 36.868488 72.167213 101.543350
[R_rear_hand03]
15 101.539970 5.215704 5.435467 71.484634 -71.816666 21.513840 101.819031
16 101.539970 5.215704 5.435467 71.484581 -71.816628 21.513813 101.819031
[Rope4_Seg01]
15 0.000014 -0.000038 -0.000389 51.963501 -9.449543 -137.246445 0.000391
16 0.000014 -0.000038 -0.000374 51.082817 -8.284258 -139.085770 0.000376
[Rope4_Seg02]
15 139.999985 0.000060 0.000119 -13.171656 -0.340469 -17.225183 139.999985
16 139.999985 0.000060 0.000119 -13.339733 -0.406356 -16.625896 139.999985
[Rope4_Seg03]
15 139.999924 0.000000 -0.000238 -13.170010 3.041567 -13.656782 139.999924
16 139.999924 0.000000 -0.000238 -12.919109 2.562231 -12.904593 139.999924
[Rope4_Seg04]
15 139.999985 0.000000 0.000119 -6.391433 3.177313 -6.025563 139.999985
16 139.999985 0.000000 0.000119 -7.255619 2.770789 -6.666316 139.999985
[Rope4_Seg05]
15 139.999802 -0.000060 -0.000119 -13.363117 7.080195 -12.859138 139.999802
16 139.999802 -0.000060 -0.000119 -17.451849 10.080169 -15.663275 139.999802
[Rope4_Seg06]
15 139.999924 0.000000 0.000060 -18.087297 15.539529 -18.838373 139.999924
16 139.999924 0.000000 0.000060 -15.733374 18.147156 -15.962258 139.999924
[Rope4_Seg07]
15 139.999802 0.000000 0.000000 -6.993656 13.110868 -8.909286 139.999802
16 139.999802 0.000000 0.000000 -4.090788 10.524187 -5.446050 139.999802
[Rope4_Seg08]
15 139.999924 0.000000 0.000119 -3.555019 6.630393 -3.466053 139.999924
16 139.999924 0.000000 0.000119 -2.843209 5.393255 -2.356172 139.999924
[Rope4_Seg09]
15 90.185791 0.000060 0.000060 -135.617828 2.228885 0.850567 90.185791
16 90.185791 0.000060 0.000060 -135.617828 2.228885 0.850567 90.185791
[L_rear_hand01]
15 101.696655 -8.392275 -7.654577 -12.874834 -36.868492 107.832779 102.329041
16 101.696655 -8.392275 -7.654577 -12.874829 -36.868488 107.832764 102.329041
[L_rear_hand02]
15 102.726799 -1.568258 5.773216 71.484634 71.816666 158.486176 102.900848
16 102.726799 -1.568258 5.773216 71.484581 71.816628 158.486160 102.900848
[L_rear_hand03]
15 104.552910 9.721220 -10.420293 -177.714203 -24.565960 -106.089035 105.519653
16 104.552910 9.721220 -10.420293 -177.714203 -24.565960 -106.089035 105.519653
